<?xml version="1.0" encoding="UTF-8" standalone="no"?>
<!-- Created with Inkscape (http://www.inkscape.org/) -->

<svg
   width="90.695mm"
   height="16.888mm"
   viewBox="0 0 90.695 16.888"
   version="1.1"
   id="svg104695"
   inkscape:version="1.1.2 (0a00cf5339, 2022-02-04)"
   sodipodi:docname="kulana-logo-emerald.svg"
   xmlns:inkscape="http://www.inkscape.org/namespaces/inkscape"
   xmlns:sodipodi="http://sodipodi.sourceforge.net/DTD/sodipodi-0.dtd"
   xmlns="http://www.w3.org/2000/svg"
   xmlns:svg="http://www.w3.org/2000/svg">
  <sodipodi:namedview
     id="namedview104697"
     pagecolor="#ffffff"
     bordercolor="#666666"
     borderopacity="1.0"
     inkscape:pageshadow="2"
     inkscape:pageopacity="0.0"
     inkscape:pagecheckerboard="0"
     inkscape:document-units="mm"
     showgrid="false"
     width="90.695mm"
     inkscape:zoom="1.3808221"
     inkscape:cx="111.16566"
     inkscape:cy="136.87498"
     inkscape:window-width="1920"
     inkscape:window-height="946"
     inkscape:window-x="0"
     inkscape:window-y="27"
     inkscape:window-maximized="1"
     inkscape:current-layer="layer1" />
  <defs
     id="defs104692" />
  <g
     inkscape:label="Ebene 1"
     inkscape:groupmode="layer"
     id="layer1">
    <g
       aria-label="*kulana"
       id="text106307"
       style="font-weight:bold;font-size:22.5778px;line-height:1.25;font-family:Poppins;-inkscape-font-specification:'Poppins Bold';stroke-width:0.264583"
       transform="translate(-65.219412,-72.027819)"
       fill="#059669">
      <path
         d="m 72.737812,73.043819 1.264356,2.302933 -2.777067,0.970845 2.777067,0.948266 -1.354667,2.393245 -2.257778,-1.986845 0.564445,2.935111 h -2.6416 l 0.541866,-2.935111 -2.2352,2.009423 -1.399822,-2.4384 2.777067,-0.970845 -2.754489,-0.903111 1.286933,-2.325511 2.348089,1.964267 -0.587022,-2.980267 h 2.686755 l -0.587022,2.980267 z"
         id="path115237" />
      <path
         d="m 84.704,88.735374 -3.838222,-5.2832 v 5.2832 h -3.8608 V 72.027819 h 3.8608 v 9.234311 l 3.815645,-5.125156 h 4.763911 l -5.238045,6.321778 5.2832,6.276622 z"
         id="path115239" />
      <path
         d="m 103.39836,76.136974 v 12.5984 h -3.860802 v -1.715911 q -0.587023,0.835378 -1.603023,1.354667 -0.993422,0.496711 -2.212622,0.496711 -1.444978,0 -2.551289,-0.632178 -1.106311,-0.654755 -1.715911,-1.873955 -0.6096,-1.2192 -0.6096,-2.867378 v -7.360356 h 3.838222 v 6.841067 q 0,1.264356 0.654756,1.964267 0.654756,0.699911 1.761067,0.699911 1.128889,0 1.783644,-0.699911 0.654756,-0.699911 0.654756,-1.964267 v -6.841067 z"
         id="path115241" />
      <path
         d="m 110.03622,72.027819 v 16.707555 h -3.8608 V 72.027819 Z"
         id="path115243" />
      <path
         d="m 112.06818,82.413597 q 0,-1.941689 0.72249,-3.409245 0.74506,-1.467555 2.00942,-2.257778 1.26436,-0.790222 2.82222,-0.790222 1.33209,0 2.32551,0.541867 1.016,0.541867 1.55787,1.4224 v -1.783645 h 3.8608 v 12.5984 h -3.8608 V 86.95173 q -0.56444,0.880533 -1.58044,1.4224 -0.99343,0.541867 -2.32552,0.541867 -1.53528,0 -2.79964,-0.790223 -1.26436,-0.8128 -2.00942,-2.280355 -0.72249,-1.490133 -0.72249,-3.431822 z m 9.43751,0.02258 q 0,-1.444977 -0.8128,-2.280355 -0.79022,-0.835378 -1.94169,-0.835378 -1.15147,0 -1.96427,0.835378 -0.79022,0.8128 -0.79022,2.257778 0,1.444977 0.79022,2.302933 0.8128,0.835378 1.96427,0.835378 1.15147,0 1.94169,-0.835378 0.8128,-0.835378 0.8128,-2.280356 z"
         id="path115245" />
      <path
         d="m 135.84256,76.001508 q 2.21262,0 3.52213,1.444978 1.33209,1.4224 1.33209,3.928533 v 7.360355 h -3.83822 v -6.841066 q 0,-1.264356 -0.65476,-1.964267 -0.65476,-0.699911 -1.76107,-0.699911 -1.10631,0 -1.76106,0.699911 -0.65476,0.699911 -0.65476,1.964267 v 6.841066 h -3.8608 v -12.5984 h 3.8608 v 1.670756 q 0.58702,-0.835378 1.58045,-1.309511 0.99342,-0.496711 2.2352,-0.496711 z"
         id="path115247" />
      <path
         d="m 142.61589,82.413597 q 0,-1.941689 0.72248,-3.409245 0.74507,-1.467555 2.00943,-2.257778 1.26435,-0.790222 2.82222,-0.790222 1.33209,0 2.32551,0.541867 1.016,0.541867 1.55787,1.4224 v -1.783645 h 3.8608 v 12.5984 h -3.8608 V 86.95173 q -0.56445,0.880533 -1.58045,1.4224 -0.99342,0.541867 -2.32551,0.541867 -1.53529,0 -2.79964,-0.790223 -1.26436,-0.8128 -2.00943,-2.280355 -0.72248,-1.490133 -0.72248,-3.431822 z m 9.43751,0.02258 q 0,-1.444977 -0.8128,-2.280355 -0.79023,-0.835378 -1.94169,-0.835378 -1.15147,0 -1.96427,0.835378 -0.79022,0.8128 -0.79022,2.257778 0,1.444977 0.79022,2.302933 0.8128,0.835378 1.96427,0.835378 1.15146,0 1.94169,-0.835378 0.8128,-0.835378 0.8128,-2.280356 z"
         id="path115249" />
    </g>
  </g>
</svg>
